<?xml version="1.0" encoding="utf-8"?>
<svg width="64" height="64" version="1" xmlns="http://www.w3.org/2000/svg" xmlns:bx="https://boxy-svg.com">
  <rect x="8.646" y="11.339" width="56.691" height="45.465" style="fill: rgb(105, 102, 178);"/>
  <path style="opacity: 0.2;" d="M 21.264 49.092 C 24.748 50.024 29.186 51.137 33.645 51.244 C 37.508 51.337 41.301 51.087 44.54 49.663 C 45.558 49.216 46.324 48.189 45.402 47.547 C 43.042 45.905 39.993 45.456 34.069 44.053 C 27.518 42.409 25.46 40.835 24.482 39.696 C 23.555 38.555 24.757 36.185 30.035 35.021 C 32.707 34.372 42.108 34.036 42.108 34.036 C 39.252 31.774 34.444 27.941 33.348 27.079 C 32.387 26.324 30.839 25.165 30.672 24.129 C 30.448 23.121 32.037 22.615 32.881 22.58 C 35.569 22.469 39.646 23.156 41.304 23.146 C 43.557 23.133 47.492 22.77 47.764 20.901 C 48.134 18.359 45.774 16.441 42.796 15.659 C 39.939 14.91 33.108 15.078 33.108 15.078 C 41.006 16.702 42.725 17.522 43.137 18.47 C 43.381 19.031 42.731 19.588 40.555 19.479 C 38.185 19.36 33.329 18.787 33.329 18.787 C 29.365 18.445 28.251 18.432 26.297 18.923 C 24.068 19.483 24.993 22.385 25.159 22.779 C 25.949 24.655 29.624 28.188 31.645 29.676 C 32.413 30.242 34.714 31.542 34.714 31.542 C 27.525 29.58 19.759 30.336 17.141 33.174 C 13.465 37.158 15.976 42.007 22.096 44.352 C 29.126 47.045 29.535 46.559 34.31 47.59 C 38.355 48.463 38.493 48.242 38.468 48.554 C 38.432 49.001 33.648 49.309 32.412 49.405 C 29.352 49.644 21.282 49.215 21.264 49.092 Z" transform="matrix(0.976454, -0.215724, 0.215724, 0.976454, -6.384005, 7.572249)"/>
  <path style="fill: rgb(255, 255, 255);" d="M 21.018 48.193 C 22.282 48.905 27.566 49.924 30.927 50.211 C 35.175 50.574 39.556 50.238 41.332 49.873 C 44.527 49.216 47.146 48.073 45.351 46.716 C 43.78 45.528 39.419 44.632 33.527 42.989 C 27.258 41.241 24.841 39.788 23.94 38.634 C 22.987 37.414 24.593 35.375 29.871 34.212 C 32.543 33.563 41.944 33.227 41.944 33.227 C 39.088 30.965 34.28 27.132 33.184 26.269 C 32.223 25.515 30.675 24.356 30.508 23.32 C 30.284 22.311 31.874 21.828 32.717 21.769 C 35.432 21.579 39.016 22.497 42.198 22.292 C 43.897 22.182 47.225 22.103 47.908 19.773 C 48.63 17.309 43.756 15.189 41.055 14.686 C 37.348 13.995 32.944 14.268 32.944 14.268 C 40.842 15.892 42.561 16.713 42.973 17.661 C 43.217 18.221 42.567 18.782 40.391 18.669 C 38.022 18.546 35.826 18.269 33.204 18.066 C 30.563 17.86 26.646 17.514 25.419 18.737 C 24.651 19.503 24.166 20.698 25.063 22.187 C 26.046 23.818 29.617 27.298 31.63 28.756 C 32.403 29.316 34.55 30.734 34.55 30.734 C 27.363 28.772 21.236 29.875 17.606 31.779 C 13.432 34.244 13.885 39.557 20.748 43.007 C 23.714 44.498 27.319 45.702 33.398 46.773 C 37.131 47.431 37.818 47.448 37.905 47.628 C 38.207 48.253 35.619 48.371 34.404 48.475 C 32.492 48.638 21.013 48.311 21.017 48.193 L 21.018 48.193 Z" transform="matrix(0.976454, -0.215724, 0.215724, 0.976454, -6.264073, 7.354552)" bx:origin="0.474 0.504"/>
</svg>